<mxfile host="Electron" agent="Mozilla/5.0 (Macintosh; Intel Mac OS X 10_15_7) AppleWebKit/537.36 (KHTML, like Gecko) draw.io/24.7.17 Chrome/128.0.6613.36 Electron/32.0.1 Safari/537.36" version="24.7.17">
  <diagram id="ZdwTuiK6LGV12zfFTO1-" name="Page-1">
    <mxGraphModel dx="1625" dy="1715" grid="1" gridSize="10" guides="1" tooltips="1" connect="1" arrows="1" fold="1" page="1" pageScale="1" pageWidth="827" pageHeight="1169" math="0" shadow="0">
      <root>
        <mxCell id="0" />
        <mxCell id="1" parent="0" />
        <mxCell id="b5Y4_zGtjNbEffgwSiQB-1" value="" style="rounded=1;whiteSpace=wrap;html=1;strokeColor=#67AB9F;fontColor=#999999;fillColor=none;" parent="1" vertex="1">
          <mxGeometry x="160" y="40" width="490" height="240" as="geometry" />
        </mxCell>
        <mxCell id="ae70bi0Nxy2G-uHJ9-6V-10" style="edgeStyle=orthogonalEdgeStyle;rounded=0;orthogonalLoop=1;jettySize=auto;html=1;exitX=1;exitY=0.5;exitDx=0;exitDy=0;entryX=0.5;entryY=0;entryDx=0;entryDy=0;startArrow=classic;startFill=1;strokeColor=#67AB9F;fontColor=#999999;" edge="1" parent="1" source="b5Y4_zGtjNbEffgwSiQB-2" target="ae70bi0Nxy2G-uHJ9-6V-1">
          <mxGeometry relative="1" as="geometry" />
        </mxCell>
        <mxCell id="b5Y4_zGtjNbEffgwSiQB-2" value="System Manager" style="rounded=0;whiteSpace=wrap;html=1;strokeColor=#67AB9F;fontColor=#999999;fillColor=none;" parent="1" vertex="1">
          <mxGeometry x="340" y="65" width="120" height="60" as="geometry" />
        </mxCell>
        <mxCell id="b5Y4_zGtjNbEffgwSiQB-71" style="edgeStyle=orthogonalEdgeStyle;rounded=0;orthogonalLoop=1;jettySize=auto;html=1;exitX=0.25;exitY=0;exitDx=0;exitDy=0;entryX=0.378;entryY=0.981;entryDx=0;entryDy=0;entryPerimeter=0;fontSize=14;startArrow=none;startFill=0;endArrow=classic;endFill=1;strokeColor=#67AB9F;fontColor=#999999;" parent="1" source="b5Y4_zGtjNbEffgwSiQB-4" target="b5Y4_zGtjNbEffgwSiQB-2" edge="1">
          <mxGeometry relative="1" as="geometry" />
        </mxCell>
        <mxCell id="ae70bi0Nxy2G-uHJ9-6V-9" style="edgeStyle=orthogonalEdgeStyle;rounded=0;orthogonalLoop=1;jettySize=auto;html=1;exitX=1;exitY=0.5;exitDx=0;exitDy=0;entryX=0.5;entryY=1;entryDx=0;entryDy=0;startArrow=classic;startFill=1;strokeColor=#67AB9F;fontColor=#999999;" edge="1" parent="1" source="b5Y4_zGtjNbEffgwSiQB-4" target="ae70bi0Nxy2G-uHJ9-6V-1">
          <mxGeometry relative="1" as="geometry" />
        </mxCell>
        <mxCell id="b5Y4_zGtjNbEffgwSiQB-4" value="Scheduler" style="rounded=0;whiteSpace=wrap;html=1;strokeColor=#67AB9F;fontColor=#999999;fillColor=none;" parent="1" vertex="1">
          <mxGeometry x="360" y="195" width="100" height="60" as="geometry" />
        </mxCell>
        <mxCell id="b5Y4_zGtjNbEffgwSiQB-5" value="Jobs" style="shape=cylinder3;whiteSpace=wrap;html=1;boundedLbl=1;backgroundOutline=1;size=6.818181818181628;strokeColor=#67AB9F;fontColor=#999999;fillColor=none;" parent="1" vertex="1">
          <mxGeometry x="562.01" y="86" width="78.75" height="39" as="geometry" />
        </mxCell>
        <mxCell id="b5Y4_zGtjNbEffgwSiQB-7" value="" style="rounded=1;whiteSpace=wrap;html=1;dashed=1;strokeColor=#67AB9F;fontColor=#999999;fillColor=none;" parent="1" vertex="1">
          <mxGeometry x="174" y="50" width="140" height="220" as="geometry" />
        </mxCell>
        <mxCell id="b5Y4_zGtjNbEffgwSiQB-33" style="edgeStyle=orthogonalEdgeStyle;rounded=0;orthogonalLoop=1;jettySize=auto;html=1;exitX=0.5;exitY=1;exitDx=0;exitDy=0;entryX=0.5;entryY=0;entryDx=0;entryDy=0;startArrow=classic;startFill=1;endArrow=classic;endFill=1;strokeColor=#67AB9F;fontColor=#999999;" parent="1" source="b5Y4_zGtjNbEffgwSiQB-3" target="b5Y4_zGtjNbEffgwSiQB-31" edge="1">
          <mxGeometry relative="1" as="geometry" />
        </mxCell>
        <mxCell id="b5Y4_zGtjNbEffgwSiQB-3" value="Root Service Manager" style="rounded=0;whiteSpace=wrap;html=1;strokeColor=#67AB9F;fontColor=#999999;fillColor=none;" parent="1" vertex="1">
          <mxGeometry x="185" y="98" width="120" height="60" as="geometry" />
        </mxCell>
        <mxCell id="b5Y4_zGtjNbEffgwSiQB-6" value="Routes" style="shape=cylinder3;whiteSpace=wrap;html=1;boundedLbl=1;backgroundOutline=1;size=7.999999999999915;strokeColor=#67AB9F;fontColor=#999999;fillColor=none;" parent="1" vertex="1">
          <mxGeometry x="220" y="230" width="50" height="35" as="geometry" />
        </mxCell>
        <mxCell id="b5Y4_zGtjNbEffgwSiQB-9" value="mongo" style="rounded=0;whiteSpace=wrap;html=1;strokeColor=#67AB9F;fontColor=#999999;fillColor=none;" parent="1" vertex="1">
          <mxGeometry x="578.38" y="145" width="46" height="28" as="geometry" />
        </mxCell>
        <mxCell id="b5Y4_zGtjNbEffgwSiQB-24" value="" style="group;strokeColor=#67AB9F;fontColor=#999999;" parent="1" vertex="1" connectable="0">
          <mxGeometry x="428" y="145" width="10" height="30" as="geometry" />
        </mxCell>
        <mxCell id="b5Y4_zGtjNbEffgwSiQB-20" value="" style="rounded=0;whiteSpace=wrap;html=1;strokeColor=#67AB9F;fontColor=#999999;" parent="b5Y4_zGtjNbEffgwSiQB-24" vertex="1">
          <mxGeometry width="10" height="10" as="geometry" />
        </mxCell>
        <mxCell id="b5Y4_zGtjNbEffgwSiQB-21" value="" style="rounded=0;whiteSpace=wrap;html=1;strokeColor=#67AB9F;fontColor=#999999;" parent="b5Y4_zGtjNbEffgwSiQB-24" vertex="1">
          <mxGeometry y="10" width="10" height="10" as="geometry" />
        </mxCell>
        <mxCell id="b5Y4_zGtjNbEffgwSiQB-22" value="" style="rounded=0;whiteSpace=wrap;html=1;strokeColor=#67AB9F;fontColor=#999999;" parent="b5Y4_zGtjNbEffgwSiQB-24" vertex="1">
          <mxGeometry y="20" width="10" height="10" as="geometry" />
        </mxCell>
        <mxCell id="b5Y4_zGtjNbEffgwSiQB-25" value="celery" style="text;html=1;strokeColor=none;fillColor=none;align=center;verticalAlign=middle;whiteSpace=wrap;rounded=0;rotation=-90;fontColor=#999999;" parent="1" vertex="1">
          <mxGeometry x="424" y="148" width="75" height="20" as="geometry" />
        </mxCell>
        <mxCell id="b5Y4_zGtjNbEffgwSiQB-29" style="edgeStyle=orthogonalEdgeStyle;rounded=0;orthogonalLoop=1;jettySize=auto;html=1;exitX=0;exitY=0.5;exitDx=0;exitDy=0;entryX=1;entryY=0.5;entryDx=0;entryDy=0;startArrow=classic;startFill=1;endArrow=classic;endFill=1;strokeColor=#67AB9F;fontColor=#999999;" parent="1" source="b5Y4_zGtjNbEffgwSiQB-2" target="b5Y4_zGtjNbEffgwSiQB-3" edge="1">
          <mxGeometry relative="1" as="geometry">
            <Array as="points">
              <mxPoint x="320" y="95" />
              <mxPoint x="320" y="128" />
            </Array>
          </mxGeometry>
        </mxCell>
        <mxCell id="b5Y4_zGtjNbEffgwSiQB-34" style="edgeStyle=orthogonalEdgeStyle;rounded=0;orthogonalLoop=1;jettySize=auto;html=1;exitX=0.5;exitY=1;exitDx=0;exitDy=0;entryX=0.5;entryY=0;entryDx=0;entryDy=0;entryPerimeter=0;startArrow=none;startFill=0;endArrow=none;endFill=0;strokeColor=#67AB9F;fontColor=#999999;" parent="1" source="b5Y4_zGtjNbEffgwSiQB-31" target="b5Y4_zGtjNbEffgwSiQB-6" edge="1">
          <mxGeometry relative="1" as="geometry" />
        </mxCell>
        <mxCell id="b5Y4_zGtjNbEffgwSiQB-31" value="mongo net" style="rounded=0;whiteSpace=wrap;html=1;strokeColor=#67AB9F;fontColor=#999999;fillColor=none;" parent="1" vertex="1">
          <mxGeometry x="200" y="188" width="90" height="34" as="geometry" />
        </mxCell>
        <mxCell id="b5Y4_zGtjNbEffgwSiQB-35" value="Developer" style="shape=umlActor;verticalLabelPosition=bottom;verticalAlign=top;html=1;outlineConnect=0;strokeColor=#67AB9F;fontColor=#999999;fillColor=none;" parent="1" vertex="1">
          <mxGeometry x="304" y="-35" width="30" height="50" as="geometry" />
        </mxCell>
        <mxCell id="b5Y4_zGtjNbEffgwSiQB-36" value="" style="endArrow=classic;html=1;rounded=0;entryX=0.5;entryY=0;entryDx=0;entryDy=0;strokeColor=#67AB9F;fontColor=#999999;" parent="1" target="b5Y4_zGtjNbEffgwSiQB-2" edge="1">
          <mxGeometry relative="1" as="geometry">
            <mxPoint x="340" as="sourcePoint" />
            <mxPoint x="430" y="-40" as="targetPoint" />
            <Array as="points">
              <mxPoint x="400" />
            </Array>
          </mxGeometry>
        </mxCell>
        <mxCell id="b5Y4_zGtjNbEffgwSiQB-37" value="" style="shape=message;html=1;outlineConnect=0;strokeColor=#67AB9F;fontColor=#999999;fillColor=none;" parent="b5Y4_zGtjNbEffgwSiQB-36" vertex="1">
          <mxGeometry width="20" height="14" relative="1" as="geometry">
            <mxPoint x="-10" y="-7" as="offset" />
          </mxGeometry>
        </mxCell>
        <mxCell id="b5Y4_zGtjNbEffgwSiQB-38" value="Deployment descriptor" style="text;html=1;strokeColor=#67AB9F;fillColor=none;align=center;verticalAlign=middle;whiteSpace=wrap;rounded=0;fontColor=#999999;" parent="1" vertex="1">
          <mxGeometry x="420" y="-15" width="60" height="30" as="geometry" />
        </mxCell>
        <mxCell id="b5Y4_zGtjNbEffgwSiQB-39" value="&lt;b&gt;&lt;font style=&quot;font-size: 14px&quot;&gt;Root Orchestrator&lt;/font&gt;&lt;/b&gt;" style="text;html=1;strokeColor=#67AB9F;fillColor=none;align=center;verticalAlign=middle;whiteSpace=wrap;rounded=0;dashed=1;fontColor=#999999;" parent="1" vertex="1">
          <mxGeometry x="487.5" y="40" width="130" height="30" as="geometry" />
        </mxCell>
        <mxCell id="b5Y4_zGtjNbEffgwSiQB-40" value="&lt;b&gt;&lt;font style=&quot;font-size: 14px&quot;&gt;Root Network Component&lt;/font&gt;&lt;/b&gt;" style="text;html=1;strokeColor=#67AB9F;fillColor=none;align=center;verticalAlign=middle;whiteSpace=wrap;rounded=0;dashed=1;fontColor=#999999;" parent="1" vertex="1">
          <mxGeometry x="185" y="58" width="120" height="30" as="geometry" />
        </mxCell>
        <mxCell id="b5Y4_zGtjNbEffgwSiQB-42" value="" style="rounded=1;whiteSpace=wrap;html=1;strokeColor=#67AB9F;fontColor=#999999;fillColor=none;" parent="1" vertex="1">
          <mxGeometry x="160" y="409" width="470" height="290" as="geometry" />
        </mxCell>
        <mxCell id="b5Y4_zGtjNbEffgwSiQB-44" style="edgeStyle=orthogonalEdgeStyle;rounded=0;orthogonalLoop=1;jettySize=auto;html=1;exitX=1;exitY=0.5;exitDx=0;exitDy=0;entryX=0.5;entryY=0;entryDx=0;entryDy=0;startArrow=classic;startFill=1;endArrow=classic;endFill=1;strokeColor=#67AB9F;fontColor=#999999;" parent="1" source="b5Y4_zGtjNbEffgwSiQB-45" target="b5Y4_zGtjNbEffgwSiQB-57" edge="1">
          <mxGeometry relative="1" as="geometry" />
        </mxCell>
        <mxCell id="b5Y4_zGtjNbEffgwSiQB-70" style="edgeStyle=orthogonalEdgeStyle;rounded=0;orthogonalLoop=1;jettySize=auto;html=1;exitX=0.25;exitY=1;exitDx=0;exitDy=0;entryX=0.447;entryY=-0.071;entryDx=0;entryDy=0;entryPerimeter=0;fontSize=14;startArrow=oval;startFill=1;endArrow=oval;endFill=1;strokeColor=#67AB9F;fontColor=#999999;" parent="1" source="b5Y4_zGtjNbEffgwSiQB-45" target="b5Y4_zGtjNbEffgwSiQB-68" edge="1">
          <mxGeometry relative="1" as="geometry" />
        </mxCell>
        <mxCell id="b5Y4_zGtjNbEffgwSiQB-45" value="System Manager" style="rounded=0;whiteSpace=wrap;html=1;strokeColor=#67AB9F;fontColor=#999999;fillColor=none;" parent="1" vertex="1">
          <mxGeometry x="340" y="434" width="120" height="60" as="geometry" />
        </mxCell>
        <mxCell id="b5Y4_zGtjNbEffgwSiQB-46" style="edgeStyle=orthogonalEdgeStyle;rounded=0;orthogonalLoop=1;jettySize=auto;html=1;exitX=0.25;exitY=0;exitDx=0;exitDy=0;entryX=0.5;entryY=1;entryDx=0;entryDy=0;endArrow=classic;endFill=1;strokeColor=#67AB9F;fontColor=#999999;" parent="1" source="b5Y4_zGtjNbEffgwSiQB-48" target="b5Y4_zGtjNbEffgwSiQB-45" edge="1">
          <mxGeometry relative="1" as="geometry" />
        </mxCell>
        <mxCell id="b5Y4_zGtjNbEffgwSiQB-47" style="edgeStyle=orthogonalEdgeStyle;rounded=0;orthogonalLoop=1;jettySize=auto;html=1;exitX=1;exitY=0.5;exitDx=0;exitDy=0;endArrow=classic;endFill=1;startArrow=classic;startFill=1;strokeColor=#67AB9F;fontColor=#999999;" parent="1" source="b5Y4_zGtjNbEffgwSiQB-48" target="b5Y4_zGtjNbEffgwSiQB-57" edge="1">
          <mxGeometry relative="1" as="geometry" />
        </mxCell>
        <mxCell id="b5Y4_zGtjNbEffgwSiQB-48" value="Scheduler" style="rounded=0;whiteSpace=wrap;html=1;strokeColor=#67AB9F;fontColor=#999999;fillColor=none;" parent="1" vertex="1">
          <mxGeometry x="380" y="564" width="80" height="60" as="geometry" />
        </mxCell>
        <mxCell id="b5Y4_zGtjNbEffgwSiQB-49" value="Jobs" style="shape=cylinder3;whiteSpace=wrap;html=1;boundedLbl=1;backgroundOutline=1;size=15;strokeColor=#67AB9F;fontColor=#999999;fillColor=none;" parent="1" vertex="1">
          <mxGeometry x="560" y="444" width="50" height="70" as="geometry" />
        </mxCell>
        <mxCell id="b5Y4_zGtjNbEffgwSiQB-50" value="" style="rounded=1;whiteSpace=wrap;html=1;dashed=1;strokeColor=#67AB9F;fontColor=#999999;fillColor=none;" parent="1" vertex="1">
          <mxGeometry x="174" y="419" width="140" height="220" as="geometry" />
        </mxCell>
        <mxCell id="b5Y4_zGtjNbEffgwSiQB-51" style="edgeStyle=orthogonalEdgeStyle;rounded=0;orthogonalLoop=1;jettySize=auto;html=1;exitX=0.5;exitY=1;exitDx=0;exitDy=0;entryX=0.5;entryY=0;entryDx=0;entryDy=0;startArrow=classic;startFill=1;endArrow=classic;endFill=1;strokeColor=#67AB9F;fontColor=#999999;" parent="1" source="b5Y4_zGtjNbEffgwSiQB-52" target="b5Y4_zGtjNbEffgwSiQB-65" edge="1">
          <mxGeometry relative="1" as="geometry" />
        </mxCell>
        <mxCell id="b5Y4_zGtjNbEffgwSiQB-69" style="edgeStyle=orthogonalEdgeStyle;rounded=0;orthogonalLoop=1;jettySize=auto;html=1;fontSize=14;startArrow=oval;startFill=1;endArrow=oval;endFill=1;entryX=0.35;entryY=-0.113;entryDx=0;entryDy=0;entryPerimeter=0;strokeColor=#67AB9F;fontColor=#999999;" parent="1" target="b5Y4_zGtjNbEffgwSiQB-68" edge="1">
          <mxGeometry relative="1" as="geometry">
            <mxPoint x="275" y="529" as="sourcePoint" />
            <mxPoint x="330" y="639" as="targetPoint" />
            <Array as="points">
              <mxPoint x="275" y="539" />
              <mxPoint x="330" y="539" />
            </Array>
          </mxGeometry>
        </mxCell>
        <mxCell id="b5Y4_zGtjNbEffgwSiQB-52" value="Cluster Service Manager" style="rounded=0;whiteSpace=wrap;html=1;strokeColor=#67AB9F;fontColor=#999999;fillColor=none;" parent="1" vertex="1">
          <mxGeometry x="185" y="467" width="120" height="60" as="geometry" />
        </mxCell>
        <mxCell id="b5Y4_zGtjNbEffgwSiQB-53" value="Routes" style="shape=cylinder3;whiteSpace=wrap;html=1;boundedLbl=1;backgroundOutline=1;size=7.999999999999915;strokeColor=#67AB9F;fontColor=#999999;fillColor=none;" parent="1" vertex="1">
          <mxGeometry x="220" y="599" width="50" height="35" as="geometry" />
        </mxCell>
        <mxCell id="b5Y4_zGtjNbEffgwSiQB-54" value="Nodes" style="shape=cylinder3;whiteSpace=wrap;html=1;boundedLbl=1;backgroundOutline=1;size=15;strokeColor=#67AB9F;fontColor=#999999;fillColor=none;" parent="1" vertex="1">
          <mxGeometry x="560" y="544" width="50" height="70" as="geometry" />
        </mxCell>
        <mxCell id="b5Y4_zGtjNbEffgwSiQB-55" style="edgeStyle=orthogonalEdgeStyle;rounded=0;orthogonalLoop=1;jettySize=auto;html=1;exitX=1;exitY=0.5;exitDx=0;exitDy=0;entryX=0.5;entryY=1;entryDx=0;entryDy=0;entryPerimeter=0;endArrow=none;endFill=0;strokeColor=#67AB9F;fontColor=#999999;" parent="1" source="b5Y4_zGtjNbEffgwSiQB-57" target="b5Y4_zGtjNbEffgwSiQB-49" edge="1">
          <mxGeometry relative="1" as="geometry" />
        </mxCell>
        <mxCell id="b5Y4_zGtjNbEffgwSiQB-56" style="edgeStyle=orthogonalEdgeStyle;rounded=0;orthogonalLoop=1;jettySize=auto;html=1;exitX=1;exitY=0.5;exitDx=0;exitDy=0;entryX=0.5;entryY=0;entryDx=0;entryDy=0;entryPerimeter=0;endArrow=none;endFill=0;strokeColor=#67AB9F;fontColor=#999999;" parent="1" source="b5Y4_zGtjNbEffgwSiQB-57" target="b5Y4_zGtjNbEffgwSiQB-54" edge="1">
          <mxGeometry relative="1" as="geometry" />
        </mxCell>
        <mxCell id="b5Y4_zGtjNbEffgwSiQB-57" value="mongo" style="rounded=0;whiteSpace=wrap;html=1;strokeColor=#67AB9F;fontColor=#999999;fillColor=none;" parent="1" vertex="1">
          <mxGeometry x="470" y="504" width="80" height="50" as="geometry" />
        </mxCell>
        <mxCell id="b5Y4_zGtjNbEffgwSiQB-62" value="celery" style="text;html=1;strokeColor=none;fillColor=none;align=center;verticalAlign=middle;whiteSpace=wrap;rounded=0;rotation=-90;fontColor=#999999;" parent="1" vertex="1">
          <mxGeometry x="412.5" y="519" width="75" height="20" as="geometry" />
        </mxCell>
        <mxCell id="b5Y4_zGtjNbEffgwSiQB-63" style="edgeStyle=orthogonalEdgeStyle;rounded=0;orthogonalLoop=1;jettySize=auto;html=1;exitX=0;exitY=0.5;exitDx=0;exitDy=0;entryX=1;entryY=0.5;entryDx=0;entryDy=0;startArrow=classic;startFill=1;endArrow=classic;endFill=1;strokeColor=#67AB9F;fontColor=#999999;" parent="1" source="b5Y4_zGtjNbEffgwSiQB-45" target="b5Y4_zGtjNbEffgwSiQB-52" edge="1">
          <mxGeometry relative="1" as="geometry">
            <Array as="points">
              <mxPoint x="320" y="464" />
              <mxPoint x="320" y="497" />
            </Array>
          </mxGeometry>
        </mxCell>
        <mxCell id="b5Y4_zGtjNbEffgwSiQB-64" style="edgeStyle=orthogonalEdgeStyle;rounded=0;orthogonalLoop=1;jettySize=auto;html=1;exitX=0.5;exitY=1;exitDx=0;exitDy=0;entryX=0.5;entryY=0;entryDx=0;entryDy=0;entryPerimeter=0;startArrow=none;startFill=0;endArrow=none;endFill=0;strokeColor=#67AB9F;fontColor=#999999;" parent="1" source="b5Y4_zGtjNbEffgwSiQB-65" target="b5Y4_zGtjNbEffgwSiQB-53" edge="1">
          <mxGeometry relative="1" as="geometry" />
        </mxCell>
        <mxCell id="b5Y4_zGtjNbEffgwSiQB-65" value="mongo net" style="rounded=0;whiteSpace=wrap;html=1;strokeColor=#67AB9F;fontColor=#999999;fillColor=none;" parent="1" vertex="1">
          <mxGeometry x="200" y="557" width="90" height="34" as="geometry" />
        </mxCell>
        <mxCell id="b5Y4_zGtjNbEffgwSiQB-66" value="&lt;b&gt;&lt;font style=&quot;font-size: 14px&quot;&gt;Cluster Orchestrator&lt;/font&gt;&lt;/b&gt;" style="text;html=1;strokeColor=#67AB9F;fillColor=none;align=center;verticalAlign=middle;whiteSpace=wrap;rounded=0;dashed=1;fontColor=#999999;" parent="1" vertex="1">
          <mxGeometry x="460" y="409" width="150" height="30" as="geometry" />
        </mxCell>
        <mxCell id="b5Y4_zGtjNbEffgwSiQB-67" value="&lt;b&gt;&lt;font style=&quot;font-size: 14px&quot;&gt;Cluster Network Component&lt;/font&gt;&lt;/b&gt;" style="text;html=1;strokeColor=#67AB9F;fillColor=none;align=center;verticalAlign=middle;whiteSpace=wrap;rounded=0;dashed=1;fontColor=#999999;" parent="1" vertex="1">
          <mxGeometry x="185" y="427" width="120" height="30" as="geometry" />
        </mxCell>
        <mxCell id="b5Y4_zGtjNbEffgwSiQB-68" value="Mosquitto MQTT Broker" style="rounded=0;whiteSpace=wrap;html=1;fontSize=14;strokeColor=#67AB9F;fontColor=#999999;fillColor=none;" parent="1" vertex="1">
          <mxGeometry x="185" y="649" width="415" height="40" as="geometry" />
        </mxCell>
        <mxCell id="b5Y4_zGtjNbEffgwSiQB-74" value="" style="endArrow=classic;startArrow=classic;html=1;rounded=0;fontSize=14;entryX=0.25;entryY=1;entryDx=0;entryDy=0;strokeColor=#67AB9F;fontColor=#999999;" parent="1" source="b5Y4_zGtjNbEffgwSiQB-75" target="b5Y4_zGtjNbEffgwSiQB-2" edge="1">
          <mxGeometry width="50" height="50" relative="1" as="geometry">
            <mxPoint x="340" y="290" as="sourcePoint" />
            <mxPoint x="390" y="260" as="targetPoint" />
            <Array as="points">
              <mxPoint x="340" y="180" />
              <mxPoint x="370" y="180" />
            </Array>
          </mxGeometry>
        </mxCell>
        <mxCell id="b5Y4_zGtjNbEffgwSiQB-75" value="Clusters" style="text;html=1;strokeColor=#67AB9F;fillColor=none;align=center;verticalAlign=middle;whiteSpace=wrap;rounded=0;fontSize=14;fontColor=#999999;" parent="1" vertex="1">
          <mxGeometry x="311" y="289" width="60" height="30" as="geometry" />
        </mxCell>
        <mxCell id="b5Y4_zGtjNbEffgwSiQB-76" value="" style="endArrow=classic;startArrow=classic;html=1;rounded=0;fontSize=14;strokeColor=#67AB9F;fontColor=#999999;" parent="1" edge="1">
          <mxGeometry width="50" height="50" relative="1" as="geometry">
            <mxPoint x="410" y="429" as="sourcePoint" />
            <mxPoint x="410" y="390" as="targetPoint" />
          </mxGeometry>
        </mxCell>
        <mxCell id="b5Y4_zGtjNbEffgwSiQB-77" value="Root" style="text;html=1;strokeColor=none;fillColor=none;align=center;verticalAlign=middle;whiteSpace=wrap;rounded=0;fontSize=14;fontColor=#999999;" parent="1" vertex="1">
          <mxGeometry x="380" y="366" width="60" height="30" as="geometry" />
        </mxCell>
        <mxCell id="b5Y4_zGtjNbEffgwSiQB-78" value="&lt;font style=&quot;font-size: 9px&quot;&gt;nodes/*/net/...&lt;/font&gt;" style="text;html=1;strokeColor=none;fillColor=none;align=center;verticalAlign=middle;whiteSpace=wrap;rounded=0;fontSize=14;rotation=-89;fontColor=#999999;" parent="1" vertex="1">
          <mxGeometry x="293" y="580" width="60" height="30" as="geometry" />
        </mxCell>
        <mxCell id="b5Y4_zGtjNbEffgwSiQB-80" value="nodes/*/information&amp;nbsp;&amp;nbsp;" style="text;html=1;strokeColor=none;fillColor=none;align=center;verticalAlign=middle;whiteSpace=wrap;rounded=0;fontSize=9;rotation=-90;fontColor=#999999;" parent="1" vertex="1">
          <mxGeometry x="335" y="579" width="60" height="30" as="geometry" />
        </mxCell>
        <mxCell id="b5Y4_zGtjNbEffgwSiQB-81" value="nodes/*/job" style="text;html=1;strokeColor=none;fillColor=none;align=center;verticalAlign=middle;whiteSpace=wrap;rounded=0;fontSize=9;rotation=-90;fontColor=#999999;" parent="1" vertex="1">
          <mxGeometry x="334" y="510" width="60" height="30" as="geometry" />
        </mxCell>
        <mxCell id="b5Y4_zGtjNbEffgwSiQB-82" value="VM1" style="swimlane;fontSize=9;" parent="1" vertex="1">
          <mxGeometry x="297.5" y="850" width="190" height="120" as="geometry" />
        </mxCell>
        <mxCell id="b5Y4_zGtjNbEffgwSiQB-83" value="Root Orchestrator" style="rounded=1;whiteSpace=wrap;html=1;fontSize=9;" parent="b5Y4_zGtjNbEffgwSiQB-82" vertex="1">
          <mxGeometry x="32.5" y="40" width="129" height="50" as="geometry" />
        </mxCell>
        <mxCell id="b5Y4_zGtjNbEffgwSiQB-110" style="edgeStyle=none;rounded=0;orthogonalLoop=1;jettySize=auto;html=1;exitX=0.5;exitY=0;exitDx=0;exitDy=0;entryX=0.5;entryY=1;entryDx=0;entryDy=0;fontSize=9;startArrow=none;startFill=0;endArrow=none;endFill=0;" parent="1" source="b5Y4_zGtjNbEffgwSiQB-86" target="b5Y4_zGtjNbEffgwSiQB-82" edge="1">
          <mxGeometry relative="1" as="geometry" />
        </mxCell>
        <mxCell id="b5Y4_zGtjNbEffgwSiQB-86" value="VM2" style="swimlane;fontSize=9;" parent="1" vertex="1">
          <mxGeometry x="40" y="1000" width="190" height="120" as="geometry" />
        </mxCell>
        <mxCell id="b5Y4_zGtjNbEffgwSiQB-87" value="Cluster Orchestrator" style="rounded=1;whiteSpace=wrap;html=1;fontSize=9;" parent="b5Y4_zGtjNbEffgwSiQB-86" vertex="1">
          <mxGeometry x="32.5" y="40" width="129" height="50" as="geometry" />
        </mxCell>
        <mxCell id="b5Y4_zGtjNbEffgwSiQB-111" style="edgeStyle=none;rounded=0;orthogonalLoop=1;jettySize=auto;html=1;exitX=0.5;exitY=0;exitDx=0;exitDy=0;entryX=0.5;entryY=1;entryDx=0;entryDy=0;fontSize=9;startArrow=none;startFill=0;endArrow=none;endFill=0;" parent="1" source="b5Y4_zGtjNbEffgwSiQB-88" target="b5Y4_zGtjNbEffgwSiQB-82" edge="1">
          <mxGeometry relative="1" as="geometry" />
        </mxCell>
        <mxCell id="b5Y4_zGtjNbEffgwSiQB-88" value="VM3" style="swimlane;fontSize=9;" parent="1" vertex="1">
          <mxGeometry x="550" y="1000" width="190" height="120" as="geometry" />
        </mxCell>
        <mxCell id="b5Y4_zGtjNbEffgwSiQB-89" value="Cluster Orchestrator" style="rounded=1;whiteSpace=wrap;html=1;fontSize=9;" parent="b5Y4_zGtjNbEffgwSiQB-88" vertex="1">
          <mxGeometry x="32.5" y="40" width="129" height="50" as="geometry" />
        </mxCell>
        <mxCell id="b5Y4_zGtjNbEffgwSiQB-106" style="rounded=0;orthogonalLoop=1;jettySize=auto;html=1;exitX=0.5;exitY=0;exitDx=0;exitDy=0;entryX=0.5;entryY=1;entryDx=0;entryDy=0;fontSize=9;startArrow=none;startFill=0;endArrow=none;endFill=0;" parent="1" source="b5Y4_zGtjNbEffgwSiQB-90" target="b5Y4_zGtjNbEffgwSiQB-86" edge="1">
          <mxGeometry relative="1" as="geometry" />
        </mxCell>
        <mxCell id="b5Y4_zGtjNbEffgwSiQB-120" style="edgeStyle=none;rounded=0;orthogonalLoop=1;jettySize=auto;html=1;exitX=1;exitY=0.5;exitDx=0;exitDy=0;entryX=0;entryY=0.5;entryDx=0;entryDy=0;dashed=1;dashPattern=1 2;fontSize=15;startArrow=none;startFill=0;endArrow=none;endFill=0;" parent="1" source="b5Y4_zGtjNbEffgwSiQB-90" target="b5Y4_zGtjNbEffgwSiQB-94" edge="1">
          <mxGeometry relative="1" as="geometry" />
        </mxCell>
        <mxCell id="b5Y4_zGtjNbEffgwSiQB-90" value="Raspberry Pi1" style="swimlane;fontSize=9;" parent="1" vertex="1">
          <mxGeometry x="-92" y="1169" width="220" height="111" as="geometry" />
        </mxCell>
        <mxCell id="b5Y4_zGtjNbEffgwSiQB-91" value="Node Engine" style="rounded=1;whiteSpace=wrap;html=1;fontSize=9;" parent="b5Y4_zGtjNbEffgwSiQB-90" vertex="1">
          <mxGeometry x="12.5" y="31" width="67.5" height="29" as="geometry" />
        </mxCell>
        <mxCell id="b5Y4_zGtjNbEffgwSiQB-92" value="Network Engine" style="rounded=1;whiteSpace=wrap;html=1;fontSize=9;" parent="b5Y4_zGtjNbEffgwSiQB-90" vertex="1">
          <mxGeometry x="12.5" y="71" width="67.5" height="29" as="geometry" />
        </mxCell>
        <mxCell id="b5Y4_zGtjNbEffgwSiQB-93" value="Execution Environment" style="swimlane;fontSize=9;" parent="b5Y4_zGtjNbEffgwSiQB-90" vertex="1">
          <mxGeometry x="100" y="31" width="110" height="70" as="geometry" />
        </mxCell>
        <mxCell id="b5Y4_zGtjNbEffgwSiQB-94" value="Raspberry Pim" style="swimlane;fontSize=9;" parent="1" vertex="1">
          <mxGeometry x="157" y="1169" width="220" height="111" as="geometry" />
        </mxCell>
        <mxCell id="b5Y4_zGtjNbEffgwSiQB-95" value="Node Engine" style="rounded=1;whiteSpace=wrap;html=1;fontSize=9;" parent="b5Y4_zGtjNbEffgwSiQB-94" vertex="1">
          <mxGeometry x="12.5" y="31" width="67.5" height="29" as="geometry" />
        </mxCell>
        <mxCell id="b5Y4_zGtjNbEffgwSiQB-96" value="Network Engine" style="rounded=1;whiteSpace=wrap;html=1;fontSize=9;" parent="b5Y4_zGtjNbEffgwSiQB-94" vertex="1">
          <mxGeometry x="12.5" y="71" width="67.5" height="29" as="geometry" />
        </mxCell>
        <mxCell id="b5Y4_zGtjNbEffgwSiQB-97" value="Execution Environment" style="swimlane;fontSize=9;" parent="b5Y4_zGtjNbEffgwSiQB-94" vertex="1">
          <mxGeometry x="100" y="31" width="110" height="70" as="geometry" />
        </mxCell>
        <mxCell id="b5Y4_zGtjNbEffgwSiQB-108" style="edgeStyle=none;rounded=0;orthogonalLoop=1;jettySize=auto;html=1;exitX=0.5;exitY=0;exitDx=0;exitDy=0;entryX=0.5;entryY=1;entryDx=0;entryDy=0;fontSize=9;startArrow=none;startFill=0;endArrow=none;endFill=0;" parent="1" source="b5Y4_zGtjNbEffgwSiQB-98" target="b5Y4_zGtjNbEffgwSiQB-88" edge="1">
          <mxGeometry relative="1" as="geometry" />
        </mxCell>
        <mxCell id="b5Y4_zGtjNbEffgwSiQB-119" style="edgeStyle=none;rounded=0;orthogonalLoop=1;jettySize=auto;html=1;exitX=1;exitY=0.5;exitDx=0;exitDy=0;entryX=0;entryY=0.5;entryDx=0;entryDy=0;fontSize=15;startArrow=none;startFill=0;endArrow=none;endFill=0;dashed=1;dashPattern=1 2;" parent="1" source="b5Y4_zGtjNbEffgwSiQB-98" target="b5Y4_zGtjNbEffgwSiQB-102" edge="1">
          <mxGeometry relative="1" as="geometry" />
        </mxCell>
        <mxCell id="b5Y4_zGtjNbEffgwSiQB-98" value="Raspberry Pi3" style="swimlane;fontSize=9;" parent="1" vertex="1">
          <mxGeometry x="408" y="1169" width="220" height="111" as="geometry" />
        </mxCell>
        <mxCell id="b5Y4_zGtjNbEffgwSiQB-99" value="Node Engine" style="rounded=1;whiteSpace=wrap;html=1;fontSize=9;" parent="b5Y4_zGtjNbEffgwSiQB-98" vertex="1">
          <mxGeometry x="12.5" y="31" width="67.5" height="29" as="geometry" />
        </mxCell>
        <mxCell id="b5Y4_zGtjNbEffgwSiQB-100" value="Network Engine" style="rounded=1;whiteSpace=wrap;html=1;fontSize=9;" parent="b5Y4_zGtjNbEffgwSiQB-98" vertex="1">
          <mxGeometry x="12.5" y="71" width="67.5" height="29" as="geometry" />
        </mxCell>
        <mxCell id="b5Y4_zGtjNbEffgwSiQB-101" value="Execution Environment" style="swimlane;fontSize=9;" parent="b5Y4_zGtjNbEffgwSiQB-98" vertex="1">
          <mxGeometry x="100" y="31" width="110" height="70" as="geometry" />
        </mxCell>
        <mxCell id="b5Y4_zGtjNbEffgwSiQB-102" value="Raspberry Pin" style="swimlane;fontSize=9;" parent="1" vertex="1">
          <mxGeometry x="657" y="1169" width="220" height="111" as="geometry" />
        </mxCell>
        <mxCell id="b5Y4_zGtjNbEffgwSiQB-103" value="Node Engine" style="rounded=1;whiteSpace=wrap;html=1;fontSize=9;" parent="b5Y4_zGtjNbEffgwSiQB-102" vertex="1">
          <mxGeometry x="12.5" y="31" width="67.5" height="29" as="geometry" />
        </mxCell>
        <mxCell id="b5Y4_zGtjNbEffgwSiQB-104" value="Network Engine" style="rounded=1;whiteSpace=wrap;html=1;fontSize=9;" parent="b5Y4_zGtjNbEffgwSiQB-102" vertex="1">
          <mxGeometry x="12.5" y="71" width="67.5" height="29" as="geometry" />
        </mxCell>
        <mxCell id="b5Y4_zGtjNbEffgwSiQB-105" value="Execution Environment" style="swimlane;fontSize=9;" parent="b5Y4_zGtjNbEffgwSiQB-102" vertex="1">
          <mxGeometry x="100" y="31" width="110" height="70" as="geometry" />
        </mxCell>
        <mxCell id="b5Y4_zGtjNbEffgwSiQB-107" style="edgeStyle=none;rounded=0;orthogonalLoop=1;jettySize=auto;html=1;exitX=0.5;exitY=1;exitDx=0;exitDy=0;entryX=0.5;entryY=0;entryDx=0;entryDy=0;fontSize=9;startArrow=none;startFill=0;endArrow=none;endFill=0;" parent="1" source="b5Y4_zGtjNbEffgwSiQB-86" target="b5Y4_zGtjNbEffgwSiQB-94" edge="1">
          <mxGeometry relative="1" as="geometry" />
        </mxCell>
        <mxCell id="b5Y4_zGtjNbEffgwSiQB-109" style="edgeStyle=none;rounded=0;orthogonalLoop=1;jettySize=auto;html=1;exitX=0.5;exitY=1;exitDx=0;exitDy=0;entryX=0.5;entryY=0;entryDx=0;entryDy=0;fontSize=9;startArrow=none;startFill=0;endArrow=none;endFill=0;" parent="1" source="b5Y4_zGtjNbEffgwSiQB-88" target="b5Y4_zGtjNbEffgwSiQB-102" edge="1">
          <mxGeometry relative="1" as="geometry" />
        </mxCell>
        <mxCell id="b5Y4_zGtjNbEffgwSiQB-112" value="&lt;b&gt;&lt;font style=&quot;font-size: 15px&quot;&gt;2 Cluster Deployment&lt;/font&gt;&lt;/b&gt;" style="text;html=1;strokeColor=none;fillColor=none;align=center;verticalAlign=middle;whiteSpace=wrap;rounded=0;fontSize=9;" parent="1" vertex="1">
          <mxGeometry x="40" y="810" width="180" height="30" as="geometry" />
        </mxCell>
        <mxCell id="b5Y4_zGtjNbEffgwSiQB-113" value="&lt;b&gt;&lt;font style=&quot;font-size: 15px&quot;&gt;Single Cluster Deployment&lt;/font&gt;&lt;/b&gt;" style="text;html=1;strokeColor=none;fillColor=none;align=center;verticalAlign=middle;whiteSpace=wrap;rounded=0;fontSize=9;" parent="1" vertex="1">
          <mxGeometry y="1380" width="250" height="30" as="geometry" />
        </mxCell>
        <mxCell id="b5Y4_zGtjNbEffgwSiQB-131" style="edgeStyle=none;rounded=0;orthogonalLoop=1;jettySize=auto;html=1;exitX=0.5;exitY=1;exitDx=0;exitDy=0;entryX=0.5;entryY=0;entryDx=0;entryDy=0;fontSize=15;startArrow=none;startFill=0;endArrow=none;endFill=0;" parent="1" source="b5Y4_zGtjNbEffgwSiQB-116" target="b5Y4_zGtjNbEffgwSiQB-126" edge="1">
          <mxGeometry relative="1" as="geometry" />
        </mxCell>
        <mxCell id="b5Y4_zGtjNbEffgwSiQB-116" value="VM1" style="swimlane;fontSize=9;" parent="1" vertex="1">
          <mxGeometry x="20" y="1430" width="190" height="170" as="geometry" />
        </mxCell>
        <mxCell id="b5Y4_zGtjNbEffgwSiQB-117" value="Cluster Orchestrator" style="rounded=1;whiteSpace=wrap;html=1;fontSize=9;" parent="b5Y4_zGtjNbEffgwSiQB-116" vertex="1">
          <mxGeometry x="30.5" y="101" width="129" height="50" as="geometry" />
        </mxCell>
        <mxCell id="b5Y4_zGtjNbEffgwSiQB-118" value="Root Orchestrator" style="rounded=1;whiteSpace=wrap;html=1;fontSize=9;" parent="b5Y4_zGtjNbEffgwSiQB-116" vertex="1">
          <mxGeometry x="30.5" y="40" width="129" height="50" as="geometry" />
        </mxCell>
        <mxCell id="b5Y4_zGtjNbEffgwSiQB-121" style="edgeStyle=none;rounded=0;orthogonalLoop=1;jettySize=auto;html=1;exitX=1;exitY=0.5;exitDx=0;exitDy=0;entryX=0;entryY=0.5;entryDx=0;entryDy=0;dashed=1;dashPattern=1 2;fontSize=15;startArrow=none;startFill=0;endArrow=none;endFill=0;" parent="1" source="b5Y4_zGtjNbEffgwSiQB-122" target="b5Y4_zGtjNbEffgwSiQB-126" edge="1">
          <mxGeometry relative="1" as="geometry" />
        </mxCell>
        <mxCell id="b5Y4_zGtjNbEffgwSiQB-130" style="rounded=0;orthogonalLoop=1;jettySize=auto;html=1;exitX=0.5;exitY=0;exitDx=0;exitDy=0;entryX=0.5;entryY=1;entryDx=0;entryDy=0;fontSize=15;startArrow=none;startFill=0;endArrow=none;endFill=0;" parent="1" source="b5Y4_zGtjNbEffgwSiQB-122" target="b5Y4_zGtjNbEffgwSiQB-116" edge="1">
          <mxGeometry relative="1" as="geometry" />
        </mxCell>
        <mxCell id="b5Y4_zGtjNbEffgwSiQB-122" value="Raspberry Pi1" style="swimlane;fontSize=9;" parent="1" vertex="1">
          <mxGeometry x="-119.5" y="1670" width="220" height="111" as="geometry" />
        </mxCell>
        <mxCell id="b5Y4_zGtjNbEffgwSiQB-123" value="Node Engine" style="rounded=1;whiteSpace=wrap;html=1;fontSize=9;" parent="b5Y4_zGtjNbEffgwSiQB-122" vertex="1">
          <mxGeometry x="12.5" y="31" width="67.5" height="29" as="geometry" />
        </mxCell>
        <mxCell id="b5Y4_zGtjNbEffgwSiQB-124" value="Network Engine" style="rounded=1;whiteSpace=wrap;html=1;fontSize=9;" parent="b5Y4_zGtjNbEffgwSiQB-122" vertex="1">
          <mxGeometry x="12.5" y="71" width="67.5" height="29" as="geometry" />
        </mxCell>
        <mxCell id="b5Y4_zGtjNbEffgwSiQB-125" value="Execution Environment" style="swimlane;fontSize=9;" parent="b5Y4_zGtjNbEffgwSiQB-122" vertex="1">
          <mxGeometry x="100" y="31" width="110" height="70" as="geometry" />
        </mxCell>
        <mxCell id="b5Y4_zGtjNbEffgwSiQB-126" value="Raspberry Pim" style="swimlane;fontSize=9;" parent="1" vertex="1">
          <mxGeometry x="129.5" y="1670" width="220" height="111" as="geometry" />
        </mxCell>
        <mxCell id="b5Y4_zGtjNbEffgwSiQB-127" value="Node Engine" style="rounded=1;whiteSpace=wrap;html=1;fontSize=9;" parent="b5Y4_zGtjNbEffgwSiQB-126" vertex="1">
          <mxGeometry x="12.5" y="31" width="67.5" height="29" as="geometry" />
        </mxCell>
        <mxCell id="b5Y4_zGtjNbEffgwSiQB-128" value="Network Engine" style="rounded=1;whiteSpace=wrap;html=1;fontSize=9;" parent="b5Y4_zGtjNbEffgwSiQB-126" vertex="1">
          <mxGeometry x="12.5" y="71" width="67.5" height="29" as="geometry" />
        </mxCell>
        <mxCell id="b5Y4_zGtjNbEffgwSiQB-129" value="Execution Environment" style="swimlane;fontSize=9;" parent="b5Y4_zGtjNbEffgwSiQB-126" vertex="1">
          <mxGeometry x="100" y="31" width="110" height="70" as="geometry" />
        </mxCell>
        <mxCell id="b5Y4_zGtjNbEffgwSiQB-132" value="&lt;b&gt;&lt;font style=&quot;font-size: 15px&quot;&gt;Single Node Deployment&lt;/font&gt;&lt;/b&gt;" style="text;html=1;strokeColor=none;fillColor=none;align=center;verticalAlign=middle;whiteSpace=wrap;rounded=0;fontSize=9;" parent="1" vertex="1">
          <mxGeometry x="670" y="1380" width="250" height="30" as="geometry" />
        </mxCell>
        <mxCell id="b5Y4_zGtjNbEffgwSiQB-133" value="VM1" style="swimlane;fontSize=9;" parent="1" vertex="1">
          <mxGeometry x="667" y="1423" width="250" height="250" as="geometry" />
        </mxCell>
        <mxCell id="b5Y4_zGtjNbEffgwSiQB-134" value="Cluster Orchestrator" style="rounded=1;whiteSpace=wrap;html=1;fontSize=9;" parent="b5Y4_zGtjNbEffgwSiQB-133" vertex="1">
          <mxGeometry x="30.5" y="101" width="189.5" height="50" as="geometry" />
        </mxCell>
        <mxCell id="b5Y4_zGtjNbEffgwSiQB-135" value="Root Orchestrator" style="rounded=1;whiteSpace=wrap;html=1;fontSize=9;" parent="b5Y4_zGtjNbEffgwSiQB-133" vertex="1">
          <mxGeometry x="30.5" y="40" width="189.5" height="50" as="geometry" />
        </mxCell>
        <mxCell id="b5Y4_zGtjNbEffgwSiQB-136" value="Node Engine" style="rounded=1;whiteSpace=wrap;html=1;fontSize=9;" parent="b5Y4_zGtjNbEffgwSiQB-133" vertex="1">
          <mxGeometry x="30.5" y="160" width="67.5" height="29" as="geometry" />
        </mxCell>
        <mxCell id="b5Y4_zGtjNbEffgwSiQB-137" value="Network Engine" style="rounded=1;whiteSpace=wrap;html=1;fontSize=9;" parent="b5Y4_zGtjNbEffgwSiQB-133" vertex="1">
          <mxGeometry x="30.5" y="200" width="67.5" height="29" as="geometry" />
        </mxCell>
        <mxCell id="b5Y4_zGtjNbEffgwSiQB-138" value="Execution Environment" style="swimlane;fontSize=9;" parent="b5Y4_zGtjNbEffgwSiQB-133" vertex="1">
          <mxGeometry x="110" y="160" width="110" height="70" as="geometry" />
        </mxCell>
        <mxCell id="b5Y4_zGtjNbEffgwSiQB-158" style="edgeStyle=none;rounded=0;orthogonalLoop=1;jettySize=auto;html=1;exitX=0.5;exitY=1;exitDx=0;exitDy=0;entryX=0.5;entryY=0;entryDx=0;entryDy=0;fontSize=15;startArrow=none;startFill=0;endArrow=none;endFill=0;fillColor=#e51400;strokeColor=#B20000;" parent="1" source="b5Y4_zGtjNbEffgwSiQB-139" target="b5Y4_zGtjNbEffgwSiQB-141" edge="1">
          <mxGeometry relative="1" as="geometry" />
        </mxCell>
        <mxCell id="b5Y4_zGtjNbEffgwSiQB-139" value="&lt;b&gt;&lt;font style=&quot;font-size: 12px&quot;&gt;Root Orchestrator&lt;/font&gt;&lt;/b&gt;" style="rounded=1;whiteSpace=wrap;html=1;fontSize=9;fillColor=#f0a30a;strokeColor=none;fontColor=#000000;" parent="1" vertex="1">
          <mxGeometry x="328" y="2010" width="129" height="50" as="geometry" />
        </mxCell>
        <mxCell id="b5Y4_zGtjNbEffgwSiQB-155" style="edgeStyle=none;rounded=0;orthogonalLoop=1;jettySize=auto;html=1;exitX=0.5;exitY=1;exitDx=0;exitDy=0;entryX=0.5;entryY=0;entryDx=0;entryDy=0;fontSize=15;startArrow=none;startFill=0;endArrow=none;endFill=0;fillColor=#e51400;strokeColor=#B20000;" parent="1" source="b5Y4_zGtjNbEffgwSiQB-140" target="b5Y4_zGtjNbEffgwSiQB-144" edge="1">
          <mxGeometry relative="1" as="geometry" />
        </mxCell>
        <mxCell id="b5Y4_zGtjNbEffgwSiQB-157" style="edgeStyle=none;rounded=0;orthogonalLoop=1;jettySize=auto;html=1;exitX=0.5;exitY=0;exitDx=0;exitDy=0;entryX=0.5;entryY=1;entryDx=0;entryDy=0;fontSize=15;startArrow=none;startFill=0;endArrow=none;endFill=0;fillColor=#e51400;strokeColor=#B20000;" parent="1" source="b5Y4_zGtjNbEffgwSiQB-140" target="b5Y4_zGtjNbEffgwSiQB-139" edge="1">
          <mxGeometry relative="1" as="geometry" />
        </mxCell>
        <mxCell id="b5Y4_zGtjNbEffgwSiQB-140" value="&lt;b&gt;&lt;font style=&quot;font-size: 12px&quot;&gt;Cluster Orchestrator&lt;/font&gt;&lt;/b&gt;" style="rounded=1;whiteSpace=wrap;html=1;fontSize=9;fillColor=#e3c800;fontColor=#000000;strokeColor=none;" parent="1" vertex="1">
          <mxGeometry x="141" y="2120" width="129" height="50" as="geometry" />
        </mxCell>
        <mxCell id="b5Y4_zGtjNbEffgwSiQB-154" style="edgeStyle=none;rounded=0;orthogonalLoop=1;jettySize=auto;html=1;exitX=0.5;exitY=1;exitDx=0;exitDy=0;entryX=0.5;entryY=0;entryDx=0;entryDy=0;fontSize=15;startArrow=none;startFill=0;endArrow=none;endFill=0;fillColor=#e51400;strokeColor=#B20000;" parent="1" source="b5Y4_zGtjNbEffgwSiQB-141" target="b5Y4_zGtjNbEffgwSiQB-146" edge="1">
          <mxGeometry relative="1" as="geometry" />
        </mxCell>
        <mxCell id="b5Y4_zGtjNbEffgwSiQB-141" value="&lt;b&gt;&lt;font style=&quot;font-size: 12px&quot;&gt;Cluster Orchestrator&lt;/font&gt;&lt;/b&gt;" style="rounded=1;whiteSpace=wrap;html=1;fontSize=9;fillColor=#e3c800;fontColor=#000000;strokeColor=none;" parent="1" vertex="1">
          <mxGeometry x="520.5" y="2120" width="129" height="50" as="geometry" />
        </mxCell>
        <mxCell id="b5Y4_zGtjNbEffgwSiQB-147" style="edgeStyle=none;rounded=0;orthogonalLoop=1;jettySize=auto;html=1;exitX=1;exitY=0.5;exitDx=0;exitDy=0;fontSize=15;startArrow=none;startFill=0;endArrow=none;endFill=0;dashed=1;" parent="1" source="b5Y4_zGtjNbEffgwSiQB-143" target="b5Y4_zGtjNbEffgwSiQB-144" edge="1">
          <mxGeometry relative="1" as="geometry" />
        </mxCell>
        <mxCell id="b5Y4_zGtjNbEffgwSiQB-156" style="edgeStyle=none;rounded=0;orthogonalLoop=1;jettySize=auto;html=1;exitX=0.5;exitY=0;exitDx=0;exitDy=0;entryX=0.5;entryY=1;entryDx=0;entryDy=0;fontSize=15;startArrow=none;startFill=0;endArrow=none;endFill=0;fillColor=#e51400;strokeColor=#B20000;" parent="1" source="b5Y4_zGtjNbEffgwSiQB-143" target="b5Y4_zGtjNbEffgwSiQB-140" edge="1">
          <mxGeometry relative="1" as="geometry" />
        </mxCell>
        <mxCell id="b5Y4_zGtjNbEffgwSiQB-143" value="" style="image;html=1;image=img/lib/clip_art/general/Gear_128x128.png;fontSize=15;" parent="1" vertex="1">
          <mxGeometry x="49.5" y="2230" width="80" height="80" as="geometry" />
        </mxCell>
        <mxCell id="b5Y4_zGtjNbEffgwSiQB-144" value="" style="image;html=1;image=img/lib/clip_art/general/Gear_128x128.png;fontSize=15;" parent="1" vertex="1">
          <mxGeometry x="269.5" y="2230" width="80" height="80" as="geometry" />
        </mxCell>
        <mxCell id="b5Y4_zGtjNbEffgwSiQB-152" style="edgeStyle=none;rounded=0;orthogonalLoop=1;jettySize=auto;html=1;exitX=1;exitY=0.5;exitDx=0;exitDy=0;entryX=0;entryY=0.5;entryDx=0;entryDy=0;dashed=1;fontSize=15;startArrow=none;startFill=0;endArrow=none;endFill=0;" parent="1" source="b5Y4_zGtjNbEffgwSiQB-145" target="b5Y4_zGtjNbEffgwSiQB-146" edge="1">
          <mxGeometry relative="1" as="geometry" />
        </mxCell>
        <mxCell id="b5Y4_zGtjNbEffgwSiQB-153" style="edgeStyle=none;rounded=0;orthogonalLoop=1;jettySize=auto;html=1;exitX=0.5;exitY=0;exitDx=0;exitDy=0;entryX=0.5;entryY=1;entryDx=0;entryDy=0;fontSize=15;startArrow=none;startFill=0;endArrow=none;endFill=0;fillColor=#e51400;strokeColor=#B20000;" parent="1" source="b5Y4_zGtjNbEffgwSiQB-145" target="b5Y4_zGtjNbEffgwSiQB-141" edge="1">
          <mxGeometry relative="1" as="geometry" />
        </mxCell>
        <mxCell id="b5Y4_zGtjNbEffgwSiQB-145" value="" style="image;html=1;image=img/lib/clip_art/general/Gear_128x128.png;fontSize=15;" parent="1" vertex="1">
          <mxGeometry x="440.5" y="2230" width="80" height="80" as="geometry" />
        </mxCell>
        <mxCell id="b5Y4_zGtjNbEffgwSiQB-146" value="" style="image;html=1;image=img/lib/clip_art/general/Gear_128x128.png;fontSize=15;" parent="1" vertex="1">
          <mxGeometry x="649.5" y="2230" width="80" height="80" as="geometry" />
        </mxCell>
        <mxCell id="b5Y4_zGtjNbEffgwSiQB-148" value="Worker" style="text;html=1;strokeColor=none;fillColor=none;align=center;verticalAlign=middle;whiteSpace=wrap;rounded=0;fontSize=15;" parent="1" vertex="1">
          <mxGeometry x="59.5" y="2320" width="60" height="30" as="geometry" />
        </mxCell>
        <mxCell id="b5Y4_zGtjNbEffgwSiQB-149" value="Worker" style="text;html=1;strokeColor=none;fillColor=none;align=center;verticalAlign=middle;whiteSpace=wrap;rounded=0;fontSize=15;" parent="1" vertex="1">
          <mxGeometry x="280" y="2320" width="60" height="30" as="geometry" />
        </mxCell>
        <mxCell id="b5Y4_zGtjNbEffgwSiQB-150" value="Worker" style="text;html=1;strokeColor=none;fillColor=none;align=center;verticalAlign=middle;whiteSpace=wrap;rounded=0;fontSize=15;" parent="1" vertex="1">
          <mxGeometry x="450.5" y="2320" width="60" height="30" as="geometry" />
        </mxCell>
        <mxCell id="b5Y4_zGtjNbEffgwSiQB-151" value="Worker" style="text;html=1;strokeColor=none;fillColor=none;align=center;verticalAlign=middle;whiteSpace=wrap;rounded=0;fontSize=15;" parent="1" vertex="1">
          <mxGeometry x="667" y="2320" width="60" height="30" as="geometry" />
        </mxCell>
        <mxCell id="o_eSBWRK0VfQsR33nONc-1" value="Node Engine" style="rounded=1;whiteSpace=wrap;html=1;fontSize=9;strokeColor=#67AB9F;fontColor=#999999;" parent="1" vertex="1">
          <mxGeometry x="40" y="2530" width="67.5" height="29" as="geometry" />
        </mxCell>
        <mxCell id="o_eSBWRK0VfQsR33nONc-2" value="" style="endArrow=none;dashed=1;html=1;dashPattern=1 3;strokeWidth=2;rounded=0;strokeColor=#67AB9F;fontColor=#999999;" parent="1" edge="1">
          <mxGeometry width="50" height="50" relative="1" as="geometry">
            <mxPoint x="107" y="2530" as="sourcePoint" />
            <mxPoint x="157" y="2480" as="targetPoint" />
          </mxGeometry>
        </mxCell>
        <mxCell id="o_eSBWRK0VfQsR33nONc-3" value="" style="endArrow=none;dashed=1;html=1;dashPattern=1 3;strokeWidth=2;rounded=0;entryX=0;entryY=1;entryDx=0;entryDy=0;strokeColor=#67AB9F;fontColor=#999999;" parent="1" target="o_eSBWRK0VfQsR33nONc-4" edge="1">
          <mxGeometry width="50" height="50" relative="1" as="geometry">
            <mxPoint x="107.5" y="2559" as="sourcePoint" />
            <mxPoint x="160.5" y="2599" as="targetPoint" />
          </mxGeometry>
        </mxCell>
        <mxCell id="o_eSBWRK0VfQsR33nONc-4" value="" style="rounded=0;whiteSpace=wrap;html=1;strokeColor=#67AB9F;fontColor=#999999;" parent="1" vertex="1">
          <mxGeometry x="160" y="2480" width="320" height="150" as="geometry" />
        </mxCell>
        <mxCell id="o_eSBWRK0VfQsR33nONc-5" value="MQTT" style="rounded=1;whiteSpace=wrap;html=1;strokeColor=#67AB9F;fontColor=#999999;" parent="1" vertex="1">
          <mxGeometry x="230" y="2490" width="110" height="20" as="geometry" />
        </mxCell>
        <mxCell id="o_eSBWRK0VfQsR33nONc-8" value="" style="rounded=1;whiteSpace=wrap;html=1;strokeColor=#67AB9F;fontColor=#999999;" parent="1" vertex="1">
          <mxGeometry x="170" y="2520" width="90" height="100" as="geometry" />
        </mxCell>
        <mxCell id="o_eSBWRK0VfQsR33nONc-9" value="Models" style="text;html=1;strokeColor=none;fillColor=none;align=center;verticalAlign=middle;whiteSpace=wrap;rounded=0;fontColor=#999999;" parent="1" vertex="1">
          <mxGeometry x="185" y="2516" width="60" height="30" as="geometry" />
        </mxCell>
        <mxCell id="o_eSBWRK0VfQsR33nONc-10" value="Node" style="rounded=1;whiteSpace=wrap;html=1;strokeColor=#67AB9F;fontColor=#999999;" parent="1" vertex="1">
          <mxGeometry x="185" y="2545" width="60" height="30" as="geometry" />
        </mxCell>
        <mxCell id="o_eSBWRK0VfQsR33nONc-11" value="Service" style="rounded=1;whiteSpace=wrap;html=1;strokeColor=#67AB9F;fontColor=#999999;" parent="1" vertex="1">
          <mxGeometry x="185" y="2580" width="60" height="30" as="geometry" />
        </mxCell>
        <mxCell id="o_eSBWRK0VfQsR33nONc-12" value="Net API" style="rounded=1;whiteSpace=wrap;html=1;strokeColor=#67AB9F;fontColor=#999999;" parent="1" vertex="1">
          <mxGeometry x="364" y="2490" width="60" height="20" as="geometry" />
        </mxCell>
        <mxCell id="o_eSBWRK0VfQsR33nONc-14" value="" style="rounded=1;whiteSpace=wrap;html=1;strokeColor=#67AB9F;fontColor=#999999;" parent="1" vertex="1">
          <mxGeometry x="274" y="2520" width="90" height="100" as="geometry" />
        </mxCell>
        <mxCell id="o_eSBWRK0VfQsR33nONc-15" value="Jobs" style="text;html=1;strokeColor=none;fillColor=none;align=center;verticalAlign=middle;whiteSpace=wrap;rounded=0;fontColor=#999999;" parent="1" vertex="1">
          <mxGeometry x="289" y="2516" width="60" height="30" as="geometry" />
        </mxCell>
        <mxCell id="o_eSBWRK0VfQsR33nONc-16" value="" style="rounded=1;whiteSpace=wrap;html=1;strokeColor=#67AB9F;fontColor=#999999;" parent="1" vertex="1">
          <mxGeometry x="377" y="2520" width="90" height="100" as="geometry" />
        </mxCell>
        <mxCell id="o_eSBWRK0VfQsR33nONc-17" value="Runtimes" style="text;html=1;strokeColor=none;fillColor=none;align=center;verticalAlign=middle;whiteSpace=wrap;rounded=0;fontColor=#999999;" parent="1" vertex="1">
          <mxGeometry x="392" y="2516" width="60" height="30" as="geometry" />
        </mxCell>
        <mxCell id="o_eSBWRK0VfQsR33nONc-18" value="Node Status" style="rounded=1;whiteSpace=wrap;html=1;strokeColor=#67AB9F;fontColor=#999999;" parent="1" vertex="1">
          <mxGeometry x="289" y="2545" width="60" height="30" as="geometry" />
        </mxCell>
        <mxCell id="o_eSBWRK0VfQsR33nONc-19" value="Jobs Status" style="rounded=1;whiteSpace=wrap;html=1;strokeColor=#67AB9F;fontColor=#999999;" parent="1" vertex="1">
          <mxGeometry x="289" y="2580" width="60" height="30" as="geometry" />
        </mxCell>
        <mxCell id="o_eSBWRK0VfQsR33nONc-20" value="Container Runtime" style="rounded=1;whiteSpace=wrap;html=1;strokeColor=#67AB9F;fontColor=#999999;" parent="1" vertex="1">
          <mxGeometry x="392" y="2545" width="60" height="30" as="geometry" />
        </mxCell>
        <mxCell id="o_eSBWRK0VfQsR33nONc-26" value="" style="endArrow=none;dashed=1;html=1;dashPattern=1 3;strokeWidth=2;rounded=0;strokeColor=#67AB9F;fontColor=#999999;" parent="1" edge="1">
          <mxGeometry width="50" height="50" relative="1" as="geometry">
            <mxPoint x="421" y="2600" as="sourcePoint" />
            <mxPoint x="421" y="2575" as="targetPoint" />
          </mxGeometry>
        </mxCell>
        <mxCell id="o_eSBWRK0VfQsR33nONc-27" value="" style="rounded=1;whiteSpace=wrap;html=1;strokeColor=#67AB9F;fontColor=#999999;" parent="1" vertex="1">
          <mxGeometry x="392" y="2600" width="62" height="10" as="geometry" />
        </mxCell>
        <mxCell id="ae70bi0Nxy2G-uHJ9-6V-11" style="edgeStyle=orthogonalEdgeStyle;rounded=0;orthogonalLoop=1;jettySize=auto;html=1;exitX=1;exitY=0.5;exitDx=0;exitDy=0;entryX=0;entryY=0.5;entryDx=0;entryDy=0;startArrow=classic;startFill=1;strokeColor=#67AB9F;fontColor=#999999;" edge="1" parent="1" source="ae70bi0Nxy2G-uHJ9-6V-1" target="b5Y4_zGtjNbEffgwSiQB-9">
          <mxGeometry relative="1" as="geometry" />
        </mxCell>
        <mxCell id="ae70bi0Nxy2G-uHJ9-6V-1" value="Resource Abstractor" style="rounded=0;whiteSpace=wrap;html=1;strokeColor=#67AB9F;fontColor=#999999;fillColor=none;" vertex="1" parent="1">
          <mxGeometry x="470" y="132.5" width="72.5" height="55" as="geometry" />
        </mxCell>
        <mxCell id="ae70bi0Nxy2G-uHJ9-6V-5" value="Clusters" style="shape=cylinder3;whiteSpace=wrap;html=1;boundedLbl=1;backgroundOutline=1;size=6.818181818181628;strokeColor=#67AB9F;fontColor=#999999;fillColor=none;" vertex="1" parent="1">
          <mxGeometry x="562.01" y="195" width="78.75" height="39" as="geometry" />
        </mxCell>
        <mxCell id="ae70bi0Nxy2G-uHJ9-6V-12" style="edgeStyle=orthogonalEdgeStyle;rounded=0;orthogonalLoop=1;jettySize=auto;html=1;exitX=0.5;exitY=0;exitDx=0;exitDy=0;entryX=0.5;entryY=1;entryDx=0;entryDy=0;entryPerimeter=0;startArrow=classic;startFill=1;strokeColor=#67AB9F;fontColor=#999999;" edge="1" parent="1" source="b5Y4_zGtjNbEffgwSiQB-9" target="b5Y4_zGtjNbEffgwSiQB-5">
          <mxGeometry relative="1" as="geometry" />
        </mxCell>
        <mxCell id="ae70bi0Nxy2G-uHJ9-6V-13" style="edgeStyle=orthogonalEdgeStyle;rounded=0;orthogonalLoop=1;jettySize=auto;html=1;exitX=0.5;exitY=1;exitDx=0;exitDy=0;entryX=0.5;entryY=0;entryDx=0;entryDy=0;entryPerimeter=0;startArrow=classic;startFill=1;strokeColor=#67AB9F;fontColor=#999999;" edge="1" parent="1" source="b5Y4_zGtjNbEffgwSiQB-9" target="ae70bi0Nxy2G-uHJ9-6V-5">
          <mxGeometry relative="1" as="geometry" />
        </mxCell>
        <mxCell id="ae70bi0Nxy2G-uHJ9-6V-19" value="" style="endArrow=none;html=1;rounded=0;endSize=0;strokeColor=#67AB9F;" edge="1" parent="1">
          <mxGeometry width="50" height="50" relative="1" as="geometry">
            <mxPoint x="433" y="125" as="sourcePoint" />
            <mxPoint x="433" y="145" as="targetPoint" />
          </mxGeometry>
        </mxCell>
        <mxCell id="ae70bi0Nxy2G-uHJ9-6V-20" value="" style="endArrow=classic;html=1;rounded=0;strokeColor=#67AB9F;" edge="1" parent="1">
          <mxGeometry width="50" height="50" relative="1" as="geometry">
            <mxPoint x="433" y="175" as="sourcePoint" />
            <mxPoint x="433" y="196" as="targetPoint" />
          </mxGeometry>
        </mxCell>
        <mxCell id="ae70bi0Nxy2G-uHJ9-6V-21" value="" style="group;strokeColor=#67AB9F;fontColor=#999999;" vertex="1" connectable="0" parent="1">
          <mxGeometry x="430" y="514" width="10" height="30" as="geometry" />
        </mxCell>
        <mxCell id="ae70bi0Nxy2G-uHJ9-6V-22" value="" style="rounded=0;whiteSpace=wrap;html=1;strokeColor=#67AB9F;fontColor=#999999;" vertex="1" parent="ae70bi0Nxy2G-uHJ9-6V-21">
          <mxGeometry width="10" height="10" as="geometry" />
        </mxCell>
        <mxCell id="ae70bi0Nxy2G-uHJ9-6V-23" value="" style="rounded=0;whiteSpace=wrap;html=1;strokeColor=#67AB9F;fontColor=#999999;" vertex="1" parent="ae70bi0Nxy2G-uHJ9-6V-21">
          <mxGeometry y="10" width="10" height="10" as="geometry" />
        </mxCell>
        <mxCell id="ae70bi0Nxy2G-uHJ9-6V-24" value="" style="rounded=0;whiteSpace=wrap;html=1;strokeColor=#67AB9F;fontColor=#999999;" vertex="1" parent="ae70bi0Nxy2G-uHJ9-6V-21">
          <mxGeometry y="20" width="10" height="10" as="geometry" />
        </mxCell>
        <mxCell id="ae70bi0Nxy2G-uHJ9-6V-25" value="" style="endArrow=none;html=1;rounded=0;endSize=0;strokeColor=#67AB9F;" edge="1" parent="1">
          <mxGeometry width="50" height="50" relative="1" as="geometry">
            <mxPoint x="435" y="494" as="sourcePoint" />
            <mxPoint x="435" y="514" as="targetPoint" />
          </mxGeometry>
        </mxCell>
        <mxCell id="ae70bi0Nxy2G-uHJ9-6V-26" value="" style="endArrow=classic;html=1;rounded=0;strokeColor=#67AB9F;" edge="1" parent="1">
          <mxGeometry width="50" height="50" relative="1" as="geometry">
            <mxPoint x="435" y="544" as="sourcePoint" />
            <mxPoint x="435" y="565" as="targetPoint" />
          </mxGeometry>
        </mxCell>
      </root>
    </mxGraphModel>
  </diagram>
</mxfile>
